
<svg id="svg" version="1.1" xmlns="http://www.w3.org/2000/svg" xmlns:xlink="http://www.w3.org/1999/xlink" width="100%" viewBox="0, 0, 400,48.82301656495205"><g id="svgg"><path id="path0" d="M272.750 1.773 C 270.839 2.075,267.693 3.079,267.333 3.501 C 267.287 3.555,266.876 3.815,266.419 4.080 C 265.520 4.600,263.260 6.377,262.812 6.917 C 262.659 7.100,262.368 7.438,262.164 7.667 C 261.539 8.370,259.709 11.500,259.923 11.500 C 259.970 11.500,259.890 11.729,259.745 12.010 C 258.751 13.933,258.455 16.879,258.460 24.833 C 258.464 31.757,258.561 33.227,259.174 35.719 C 259.547 37.239,261.049 40.475,261.750 41.271 C 261.842 41.376,262.170 41.772,262.479 42.153 C 262.788 42.534,263.501 43.192,264.062 43.615 C 264.624 44.039,265.159 44.467,265.251 44.567 C 268.985 48.621,281.659 48.727,286.166 44.742 C 286.487 44.458,286.938 44.099,287.167 43.945 C 287.899 43.453,289.678 41.605,290.043 40.958 C 290.236 40.615,290.456 40.333,290.531 40.333 C 290.605 40.333,290.667 40.221,290.667 40.083 C 290.667 39.946,290.732 39.833,290.813 39.833 C 291.148 39.833,292.349 36.337,292.760 34.167 C 293.430 30.619,293.258 17.568,292.495 14.146 C 291.177 8.226,286.906 3.860,280.750 2.139 C 279.596 1.816,274.077 1.564,272.750 1.773 M378.572 1.917 C 376.876 2.214,374.274 3.070,373.462 3.597 C 373.120 3.819,372.783 4.001,372.712 4.002 C 372.641 4.003,372.161 4.321,371.646 4.710 C 367.882 7.547,366.264 10.599,366.052 15.260 C 365.749 21.903,368.224 26.087,373.583 27.997 C 376.080 28.887,377.329 29.173,380.500 29.580 C 385.506 30.222,386.322 30.505,387.003 31.839 C 388.107 34.004,387.040 36.396,384.615 37.191 C 381.958 38.061,374.644 37.334,373.384 36.075 C 373.251 35.942,373.042 35.833,372.919 35.833 C 372.795 35.833,372.669 35.777,372.639 35.708 C 372.553 35.515,371.205 34.500,371.035 34.500 C 370.783 34.500,363.833 41.479,363.833 41.731 C 363.833 42.027,365.268 43.294,366.536 44.118 C 366.929 44.374,367.325 44.672,367.417 44.782 C 367.716 45.138,370.672 46.336,372.294 46.757 C 379.637 48.665,389.642 47.586,392.804 44.545 C 392.925 44.429,393.087 44.333,393.165 44.333 C 393.745 44.333,396.514 41.149,397.296 39.583 C 398.970 36.229,399.130 30.961,397.676 27.083 C 396.432 23.766,393.267 21.227,389.250 20.324 C 388.792 20.221,388.304 20.094,388.167 20.041 C 388.029 19.989,387.804 19.938,387.667 19.929 C 387.529 19.919,387.342 19.865,387.250 19.808 C 387.158 19.751,386.633 19.654,386.083 19.592 C 385.533 19.531,384.596 19.409,384.000 19.322 C 383.404 19.235,382.317 19.086,381.583 18.992 C 378.918 18.649,377.049 17.512,376.976 16.187 C 376.911 15.012,377.411 13.333,377.827 13.333 C 377.881 13.333,378.173 13.107,378.476 12.831 C 379.865 11.562,383.345 11.122,386.250 11.847 C 387.400 12.135,389.069 12.962,390.149 13.779 L 390.881 14.333 394.482 10.738 L 398.083 7.143 397.250 6.400 C 394.744 4.165,391.754 2.735,388.200 2.071 C 386.174 1.692,380.379 1.599,378.572 1.917 M217.833 24.669 L 217.833 47.338 223.542 47.294 L 229.250 47.250 229.335 36.250 C 229.382 30.200,229.438 25.325,229.460 25.417 C 229.482 25.508,229.669 25.784,229.875 26.029 C 230.081 26.275,230.398 26.725,230.579 27.029 C 232.134 29.645,233.173 31.290,233.529 31.697 C 233.714 31.909,234.049 32.421,234.272 32.833 C 234.495 33.246,234.881 33.896,235.130 34.278 C 235.716 35.176,236.741 36.781,238.488 39.535 C 240.637 42.923,241.056 43.559,241.342 43.874 C 241.488 44.034,241.768 44.484,241.965 44.874 C 242.161 45.264,242.570 45.958,242.872 46.417 L 243.421 47.250 248.502 47.250 L 253.583 47.250 253.583 24.667 L 253.583 2.083 247.876 2.039 L 242.169 1.996 242.126 13.123 L 242.083 24.250 241.320 23.083 C 240.901 22.442,240.226 21.389,239.820 20.744 C 239.415 20.100,238.990 19.425,238.877 19.244 C 238.763 19.064,238.527 18.654,238.351 18.333 C 238.176 18.012,237.853 17.542,237.633 17.289 C 237.414 17.035,236.793 16.097,236.254 15.205 C 235.095 13.286,234.135 11.783,233.994 11.667 C 233.938 11.621,233.840 11.471,233.777 11.333 C 233.713 11.196,233.439 10.746,233.168 10.333 C 232.897 9.921,232.429 9.183,232.129 8.694 C 231.829 8.204,231.451 7.604,231.290 7.360 C 231.128 7.116,230.951 6.785,230.895 6.625 C 230.840 6.465,230.738 6.333,230.670 6.333 C 230.601 6.333,230.148 5.677,229.663 4.875 C 229.177 4.073,228.586 3.101,228.349 2.714 L 227.917 2.012 222.875 2.006 L 217.833 2.000 217.833 24.669 M294.248 2.375 C 294.198 2.581,294.178 4.850,294.203 7.417 L 294.250 12.083 299.708 12.127 L 305.165 12.171 305.208 29.711 L 305.250 47.250 310.958 47.294 L 316.667 47.338 316.667 29.754 L 316.667 12.171 322.208 12.127 L 327.750 12.083 327.794 7.042 L 327.838 2.000 311.089 2.000 L 294.340 2.000 294.248 2.375 M331.668 24.666 L 331.664 47.333 347.249 47.333 L 362.833 47.333 362.833 42.333 L 362.833 37.333 353.000 37.333 L 343.167 37.333 343.167 33.502 L 343.167 29.670 351.542 29.627 L 359.917 29.583 359.961 24.458 C 359.985 21.638,359.947 19.341,359.877 19.352 C 359.807 19.364,356.019 19.364,351.458 19.353 L 343.167 19.333 343.167 15.750 L 343.167 12.167 353.002 12.167 L 362.838 12.167 362.794 7.125 L 362.750 2.083 347.211 2.041 L 331.671 1.998 331.668 24.666 M278.277 12.351 C 281.213 13.748,281.752 15.912,281.616 25.750 C 281.515 33.042,281.309 34.238,279.861 35.947 C 277.697 38.500,272.811 38.016,271.088 35.077 C 269.459 32.296,269.342 17.806,270.924 14.627 C 271.362 13.747,272.864 12.333,273.360 12.333 C 273.492 12.333,273.680 12.254,273.777 12.156 C 274.369 11.564,276.849 11.671,278.277 12.351 " stroke="none" fill="#bc2c04" fill-rule="evenodd"></path><path id="path1" d="M65.977 1.835 C 57.704 3.138,53.079 8.281,53.090 16.167 C 53.100 22.933,54.741 25.382,61.250 28.342 C 62.156 28.754,64.611 29.228,68.500 29.741 C 73.445 30.393,74.430 31.077,74.302 33.765 C 74.159 36.782,71.491 38.029,66.268 37.521 C 62.815 37.185,60.920 36.563,59.049 35.154 C 57.866 34.262,58.162 34.084,54.165 38.089 L 50.583 41.678 51.520 42.547 C 56.723 47.376,66.687 49.173,75.167 46.812 C 84.073 44.333,88.379 34.461,84.234 26.026 C 82.857 23.222,78.341 20.167,75.576 20.167 C 75.366 20.167,75.169 20.096,75.139 20.009 C 75.108 19.923,73.184 19.587,70.863 19.263 C 66.252 18.620,65.373 18.337,64.621 17.259 C 64.426 16.979,64.198 16.703,64.114 16.645 C 63.374 16.134,64.498 13.434,65.774 12.658 C 66.127 12.443,66.454 12.215,66.500 12.151 C 67.022 11.421,74.167 11.457,74.167 12.189 C 74.167 12.269,74.260 12.334,74.375 12.335 C 74.787 12.338,76.368 13.172,77.101 13.773 L 77.849 14.386 78.524 13.735 C 81.323 11.036,85.000 7.271,85.000 7.105 C 85.000 6.823,83.656 5.727,82.172 4.798 C 81.482 4.367,80.818 3.928,80.698 3.823 C 80.153 3.352,77.420 2.461,75.264 2.053 C 73.689 1.755,67.421 1.608,65.977 1.835 M3.000 24.667 L 3.000 47.333 18.250 47.333 L 33.500 47.333 33.500 42.333 L 33.500 37.333 24.000 37.333 L 14.500 37.333 14.500 19.667 L 14.500 2.000 8.750 2.000 L 3.000 2.000 3.000 24.667 M37.167 24.667 L 37.167 47.333 42.917 47.333 L 48.667 47.333 48.667 24.667 L 48.667 2.000 42.917 2.000 L 37.167 2.000 37.167 24.667 M87.706 7.125 L 87.750 12.250 93.292 12.294 L 98.833 12.338 98.833 29.836 L 98.833 47.333 104.583 47.333 L 110.333 47.333 110.333 29.836 L 110.333 12.338 115.875 12.294 L 121.417 12.250 121.461 7.125 L 121.505 2.000 104.583 2.000 L 87.662 2.000 87.706 7.125 M125.167 24.667 L 125.167 47.333 140.667 47.333 L 156.167 47.333 156.167 42.333 L 156.167 37.333 146.417 37.333 L 136.667 37.333 136.667 33.500 L 136.667 29.667 145.000 29.667 L 153.333 29.667 153.333 24.500 L 153.333 19.333 145.000 19.333 L 136.667 19.333 136.667 15.835 L 136.667 12.336 146.375 12.293 L 156.083 12.250 156.127 7.125 L 156.171 2.000 140.669 2.000 L 125.167 2.000 125.167 24.667 M161.333 24.667 L 161.333 47.333 167.083 47.333 L 172.833 47.333 172.833 36.385 C 172.833 25.930,172.847 25.452,173.126 25.760 C 173.439 26.105,174.169 27.240,175.800 29.917 C 176.359 30.833,176.933 31.733,177.077 31.917 C 177.220 32.100,177.946 33.225,178.689 34.417 C 179.432 35.608,180.396 37.108,180.832 37.750 C 181.267 38.392,182.164 39.817,182.826 40.917 C 183.487 42.017,184.312 43.292,184.660 43.750 C 185.007 44.208,185.319 44.663,185.354 44.760 C 185.388 44.857,185.753 45.476,186.163 46.135 L 186.910 47.333 192.038 47.333 L 197.167 47.333 197.167 24.667 L 197.167 2.000 191.417 2.000 L 185.667 2.000 185.664 13.125 L 185.661 24.250 185.295 23.667 C 185.094 23.346,184.883 23.046,184.826 23.000 C 184.720 22.914,183.658 21.239,182.265 18.959 C 181.832 18.248,181.381 17.572,181.265 17.455 C 181.149 17.339,180.579 16.458,179.999 15.497 C 179.420 14.536,178.184 12.588,177.254 11.167 C 176.324 9.746,175.315 8.146,175.012 7.612 C 174.709 7.078,174.207 6.308,173.897 5.902 C 173.587 5.496,172.911 4.452,172.395 3.582 L 171.455 2.000 166.394 2.000 L 161.333 2.000 161.333 24.667 " stroke="none" fill="#040404" fill-rule="evenodd"></path><path id="path2" d="M297.125 12.291 C 298.615 12.319,301.052 12.319,302.542 12.291 C 304.031 12.264,302.813 12.241,299.833 12.241 C 296.854 12.241,295.635 12.264,297.125 12.291 M319.386 12.291 C 320.927 12.319,323.402 12.319,324.886 12.291 C 326.369 12.264,325.108 12.241,322.083 12.241 C 319.058 12.241,317.844 12.264,319.386 12.291 M347.958 12.292 C 350.640 12.317,355.027 12.317,357.708 12.292 C 360.390 12.266,358.196 12.245,352.833 12.245 C 347.471 12.245,345.277 12.266,347.958 12.292 " stroke="none" fill="#c01c04" fill-rule="evenodd"></path><path id="path3" d="" stroke="none" fill="#341c04" fill-rule="evenodd"></path><path id="path4" d="" stroke="none" fill="#042004" fill-rule="evenodd"></path></g></svg>
